<svg width="72" height="72" viewBox="0 0 72 72" fill="none" xmlns="http://www.w3.org/2000/svg">
<g id="Group 3">
<g id="Group 2">
<path id="Subtract" fill-rule="evenodd" clip-rule="evenodd" d="M41.431 10.6647C39.5947 10.131 37.6993 9.77579 35.77 9.61074C28.9088 9.02377 22.0609 10.8799 16.4353 14.8513C10.8096 18.8228 6.7681 24.6542 5.02424 31.316C3.28038 37.9778 3.94635 45.0415 6.90455 51.2599C9.86276 57.4784 14.923 62.4517 21.1917 65.3018C27.4605 68.1518 34.5347 68.6954 41.1652 66.8364C47.7958 64.9774 53.5564 60.8355 57.4298 55.1419C60.5102 50.6141 62.2395 45.3365 62.4636 39.9201C62.4989 39.0672 62.4969 38.2108 62.4569 37.3534H58.3883C58.6857 42.8431 57.1752 48.2921 54.0701 52.8563C50.7356 57.7578 45.7764 61.3235 40.0683 62.9238C34.3602 64.5242 28.2701 64.0563 22.8735 61.6027C17.4768 59.1491 13.1206 54.8677 10.5739 49.5144C8.02728 44.161 7.45397 38.08 8.95522 32.345C10.4565 26.61 13.9357 21.5899 18.7787 18.1709C23.6217 14.752 29.517 13.1541 35.4236 13.6594C37.4848 13.8357 39.5011 14.2642 41.431 14.9255V10.6647Z" fill="#FDC5F5"/>
<path id="Subtract_2" fill-rule="evenodd" clip-rule="evenodd" d="M43.478 15.7599C51.3962 19.2754 57.1608 26.761 58.2451 35.6902H62.3345C61.1672 24.4874 53.6675 15.1674 43.478 11.3726V15.7599Z" fill="#003049"/>
</g>
<path id="Subtract_3" fill-rule="evenodd" clip-rule="evenodd" d="M63.8397 37.3546C63.8445 37.5795 63.8469 37.805 63.8469 38.031C63.8469 55.2877 49.8576 69.277 32.6009 69.277C27.7369 69.277 23.1324 68.1655 19.0276 66.1828L19.0156 66.1747V66.177L19.0276 66.1828C24.4515 69.852 30.9926 71.9949 38.0341 71.9949C56.7913 71.9949 71.9971 56.7892 71.9971 38.0319C71.9971 37.8056 71.9949 37.5799 71.9905 37.3546H63.8397Z" fill="#003049"/>
<path id="Subtract_4" fill-rule="evenodd" clip-rule="evenodd" d="M41.4382 9.04868C39.0431 8.46069 36.5395 8.14886 33.963 8.14886C16.7064 8.14886 2.71708 22.1381 2.71708 39.3948C2.71708 44.2607 3.82935 48.8668 5.8135 52.9728L5.81779 52.9791H5.81656L5.8135 52.9728C2.14288 47.5482 -0.000904083 41.0059 -0.000904083 33.963C-0.000904083 15.2057 15.2048 -3.05176e-05 33.9621 -3.05176e-05C36.5307 -3.05176e-05 39.0327 0.28511 41.4382 0.82547V9.04868Z" fill="#003049"/>
</g>
</svg>
